HIERARCHY
ROOT Hips
{
	OFFSET 49.488201 -7.268254 86.442398
	CHANNELS 6 Xposition Yposition Zposition Xrotation Yrotation Zrotation
	JOINT spine
	{
		OFFSET 0.000000 -0.393701 6.846367
		CHANNELS 3 Xrotation Yrotation Zrotation
		JOINT spine1
		{
			OFFSET 0.000000 -0.000001 9.496208
			CHANNELS 3 Xrotation Yrotation Zrotation
			JOINT spine2
			{
				OFFSET 0.000000 -0.000001 9.099091
				CHANNELS 3 Xrotation Yrotation Zrotation
				JOINT Neck
				{
					OFFSET 0.000000 -1.113784 23.361206
					CHANNELS 3 Xrotation Yrotation Zrotation
					JOINT Head
					{
						OFFSET 0.000000 -0.000001 7.058014
						CHANNELS 3 Xrotation Yrotation Zrotation
						End Site
						{
							OFFSET 0.000000 5.634187 17.084396
						}
					}
				}
				JOINT RightShoulder
				{
					OFFSET -3.831360 0.533489 9.826309
					CHANNELS 3 Xrotation Yrotation Zrotation
					JOINT RightArm
					{
						OFFSET 0.000000 -0.000002 12.888107
						CHANNELS 3 Xrotation Yrotation Zrotation
						JOINT RightArmRoll
						{
							OFFSET 0.000000 -0.000001 6.506165
							CHANNELS 3 Xrotation Yrotation Zrotation
							JOINT RightForeArm
							{
								OFFSET 0.000000 -0.000003 18.950104
								CHANNELS 3 Xrotation Yrotation Zrotation
								JOINT RightForeArmRoll
								{
									OFFSET 0.000000 -0.000001 7.300934
									CHANNELS 3 Xrotation Yrotation Zrotation
									JOINT RightHand
									{
										OFFSET 0.000000 -0.000002 14.651398
										CHANNELS 3 Xrotation Yrotation Zrotation
										End Site
										{
											OFFSET 0.000000 0.000000 0.100006
										}
									}
								}
							}
						}
					}
				}
				JOINT LeftShoulder
				{
					OFFSET 3.831360 0.533489 9.826309
					CHANNELS 3 Xrotation Yrotation Zrotation
					JOINT LeftArm
					{
						OFFSET 0.000000 -0.000002 12.888107
						CHANNELS 3 Xrotation Yrotation Zrotation
						JOINT LeftArmRoll
						{
							OFFSET 0.000000 -0.000001 6.506165
							CHANNELS 3 Xrotation Yrotation Zrotation
							JOINT LeftForeArm
							{
								OFFSET 0.000000 -0.000003 18.950104
								CHANNELS 3 Xrotation Yrotation Zrotation
								JOINT LeftForeArmRoll
								{
									OFFSET 0.000000 -0.000001 7.300934
									CHANNELS 3 Xrotation Yrotation Zrotation
									JOINT LeftHand
									{
										OFFSET 0.000000 -0.000002 14.651398
										CHANNELS 3 Xrotation Yrotation Zrotation
										End Site
										{
											OFFSET 0.000000 0.000000 0.100006
										}
									}
								}
							}
						}
					}
				}
			}
		}
	}
	JOINT RightUpLeg
	{
		OFFSET -6.068371 0.933477 -1.112778
		CHANNELS 3 Xrotation Yrotation Zrotation
		JOINT RightUpLegRoll
		{
			OFFSET 0.000000 -0.000003 17.179596
			CHANNELS 3 Xrotation Yrotation Zrotation
			JOINT RightLeg
			{
				OFFSET 0.000000 0.000003 -21.274300
				CHANNELS 3 Xrotation Yrotation Zrotation
				JOINT RightLegRoll
				{
					OFFSET 0.000000 -0.000003 21.343903
					CHANNELS 3 Xrotation Yrotation Zrotation
					JOINT RightFoot
					{
						OFFSET 0.000000 -0.000003 17.765198
						CHANNELS 3 Xrotation Yrotation Zrotation
						JOINT RightToeBase
						{
							OFFSET 0.000000 -0.000002 14.850807
							CHANNELS 3 Xrotation Yrotation Zrotation
							End Site
							{
								OFFSET 0.006294 0.829003 7.192123
							}
						}
					}
				}
			}
		}
	}
	JOINT LeftUpLeg
	{
		OFFSET 6.068371 0.933477 -1.112778
		CHANNELS 3 Xrotation Yrotation Zrotation
		JOINT LeftUpLegRoll
		{
			OFFSET 0.000000 -0.000003 17.179703
			CHANNELS 3 Xrotation Yrotation Zrotation
			JOINT LeftLeg
			{
				OFFSET 0.000000 -0.000003 21.274200
				CHANNELS 3 Xrotation Yrotation Zrotation
				JOINT LeftLegRoll
				{
					OFFSET 0.000000 -0.000004 21.541199
					CHANNELS 3 Xrotation Yrotation Zrotation
					JOINT LeftFoot
					{
						OFFSET 0.000000 -0.000003 17.567902
						CHANNELS 3 Xrotation Yrotation Zrotation
						JOINT LeftToeBase
						{
							OFFSET 0.000000 -0.000002 14.850800
							CHANNELS 3 Xrotation Yrotation Zrotation
							End Site
							{
								OFFSET -0.028210 0.829004 7.192123
							}
						}
					}
				}
			}
		}
	}
}
MOTION
Frames: 5
Frame Time: 0.041667
49.400604 -6.536986 86.373398 -2.178880 0.232036 -1.015282 -1.665112 -1.577224 1.188376 0.686758 -3.171163 2.350132 2.332294 -3.140293 2.387775 3.509769 18.483931 -2.987791 9.099698 -11.675747 -4.027111 -10.298664 -47.483390 -11.437539 -48.971572 -156.686370 -97.791425 -0.000001 0.000011 -0.000009 56.925433 -4.561425 7.109876 -0.000008 0.000011 -3.001068 -5.000170 -7.998896 0.000170 -21.253797 71.713619 24.894305 -54.425512 158.461017 81.488091 -0.000003 0.000002 0.000003 52.771612 25.429995 -11.534318 -0.000002 -0.000009 3.004169 -5.000153 7.999194 -0.000144 -14.687565 178.875947 -3.125845 179.999991 -0.000005 -1.392001 154.885249 -3.203337 -1.203436 0.000000 0.000001 0.793900 72.994874 7.657590 -0.365444 25.456952 -7.355613 0.000009 -13.041156 175.270618 -1.208592 -0.000004 -0.000005 -0.760199 -26.251345 1.919299 1.354267 -0.000002 -0.000000 -0.382787 75.038104 -5.867258 -4.792820 25.456957 7.355612 0.000001 
49.398304 -6.530199 86.372398 -2.174296 0.227145 -1.019706 -1.665849 -1.576154 1.188066 0.685197 -3.169415 2.350134 2.330728 -3.138777 2.387747 3.511949 18.506357 -2.990529 9.089776 -11.697314 -4.030442 -10.283344 -47.475675 -11.417611 -48.996656 -156.677040 -97.677381 -0.000002 0.000008 -0.000013 56.927035 -4.558890 7.087432 -0.000010 0.000011 -3.001071 -5.000169 -7.998892 0.000167 -21.271673 71.726808 24.913825 -54.468279 158.464541 81.469902 -0.000006 0.000002 0.000004 52.765175 25.432718 -11.523849 -0.000002 -0.000008 3.004171 -5.000154 7.999188 -0.000141 -14.692241 178.880824 -3.124502 179.999991 -0.000005 -1.392001 154.887776 -3.202500 -1.202873 -0.000000 0.000001 0.793845 72.992312 7.657759 -0.364943 25.456952 -7.355614 0.000010 -13.042850 175.276506 -1.206814 -0.000005 -0.000005 -0.760184 -26.245473 1.921064 1.354344 -0.000002 -0.000000 -0.382731 75.034696 -5.867073 -4.791572 25.456959 7.355613 0.000001 
49.399204 -6.526818 86.370598 -2.169564 0.222139 -1.024174 -1.666650 -1.575074 1.187726 0.683583 -3.167686 2.350084 2.329113 -3.137293 2.387678 3.513099 18.529502 -2.993092 9.079528 -11.718793 -4.033952 -10.267409 -47.468387 -11.396939 -49.021695 -156.666139 -97.561903 -0.000002 0.000009 -0.000007 56.931864 -4.554529 7.063772 -0.000008 0.000012 -3.001071 -5.000172 -7.998888 0.000165 -21.287818 71.739014 24.931437 -54.512870 158.468981 81.445682 -0.000001 0.000000 0.000003 52.758119 25.433435 -11.510929 -0.000003 -0.000006 3.004171 -5.000153 7.999189 -0.000142 -14.697008 178.886643 -3.123370 179.999991 -0.000004 -1.391004 154.890372 -3.202567 -1.202727 0.000001 0.000001 0.793790 72.989642 7.657968 -0.364529 25.456955 -7.355613 0.000009 -13.044563 175.281410 -1.204688 -0.000004 -0.000005 -0.760170 -26.239495 1.922822 1.354420 -0.000003 -0.000000 -0.382676 75.031199 -5.866923 -4.790234 25.456959 7.355614 0.000001 
49.397102 -6.547647 86.379402 -2.164584 0.217137 -1.028573 -1.667529 -1.573984 1.187353 0.681876 -3.165987 2.349949 2.327407 -3.135866 2.387536 3.513146 18.553266 -2.995410 9.068996 -11.739984 -4.037575 -10.251241 -47.461537 -11.375995 -49.046479 -156.654323 -97.445537 -0.000002 0.000008 -0.000012 56.940261 -4.548005 7.038896 -0.000010 0.000013 -3.001067 -5.000171 -7.998889 0.000167 -21.302190 71.750167 24.947114 -54.559186 158.473557 81.416859 -0.000001 0.000003 0.000004 52.750514 25.432049 -11.495522 -0.000001 -0.000006 3.004169 -5.000155 7.999189 -0.000142 -14.701984 178.892476 -3.122259 179.999991 -0.000005 -1.391004 154.893090 -3.201735 -1.203149 0.000001 0.000001 0.793734 72.986985 7.658177 -0.364116 25.456950 -7.355614 0.000009 -13.046476 175.286314 -1.202475 -0.000005 -0.000004 -0.760156 -26.233322 1.924557 1.354494 -0.000004 -0.000001 -0.382620 75.027675 -5.866726 -4.788992 25.456960 7.355614 -0.000000 
49.397903 -6.538877 86.378700 -2.159265 0.212257 -1.032837 -1.668507 -1.572913 1.186947 0.680035 -3.164348 2.349719 2.325561 -3.134502 2.387300 3.512005 18.577252 -2.997411 9.058289 -11.760494 -4.041288 -10.235208 -47.455273 -11.355255 -49.071095 -156.641687 -97.329410 0.000001 0.000012 -0.000012 56.952607 -4.538996 7.012815 -0.000008 0.000012 -3.001072 -5.000169 -7.998893 0.000168 -21.314929 71.760242 24.961010 -54.606594 158.479431 81.381991 -0.000003 0.000003 0.000003 52.742349 25.428555 -11.477911 -0.000002 -0.000003 3.004168 -5.000155 7.999191 -0.000143 -14.707359 178.897339 -3.120963 179.999991 -0.000005 -1.391004 154.895904 -3.201809 -1.202993 0.000000 0.000001 0.793679 72.984328 7.658385 -0.363703 25.456952 -7.355614 0.000009 -13.048889 175.291245 -1.200212 -0.000006 -0.000004 -0.760143 -26.227344 1.926227 1.354569 -0.000002 -0.000000 -0.382565 75.024157 -5.866520 -4.787749 25.456959 7.355613 0.000001 
